<svg xmlns="http://www.w3.org/2000/svg" width="512" height="512" viewBox="0 0 512 512" role="img" aria-label="Crosspane application icon"><title>Crosspane application icon</title><defs><linearGradient id="bg" x2="1" y2="1"><stop stop-color="#163953"/><stop offset="1" stop-color="#071525"/></linearGradient></defs><rect x="8" y="8" width="496" height="496" rx="110" fill="url(#bg)"/><rect x="9" y="9" width="494" height="494" rx="109" fill="none" stroke="#386079" stroke-width="2"/><g transform="translate(52 52) scale(.8)"><polygon points="236,40 438,102 383,196 228,138 155,199 253,244 200,306 158,332 225,402 380,302 450,389 227,462 71,365 71,144" fill="#17c8f4"/><polygon points="236,40 438,102 364,125 211,86" fill="#b7efff"/><polygon points="236,40 211,86 71,144" fill="#17c8f4"/><polygon points="211,86 364,125 383,196 228,138 188,101" fill="#0877b4"/><polygon points="364,125 438,102 383,196" fill="#63ddff"/><polygon points="71,144 188,101 155,199 71,269" fill="#39c9f2"/><polygon points="71,144 253,244 195,274 128,209" fill="#b7efff"/><polygon points="195,274 253,244 200,306 71,365 71,326" fill="#16bce9"/><polygon points="71,269 128,239 128,285 71,326" fill="#0b416d"/><polygon points="128,285 200,306 158,332 225,402 154,417 71,365" fill="#0877b4"/><polygon points="71,365 154,417 227,462 140,424" fill="#17c8f4"/><polygon points="154,417 225,402 380,302 381,360 227,462" fill="#64ddff"/><polygon points="380,302 450,389 381,360" fill="#d9f7ff"/><polygon points="381,360 450,389 227,462" fill="#07507e"/></g></svg>
